<?xml version="1.0" standalone="no"?>
<!DOCTYPE svg PUBLIC "-//W3C//DTD SVG 20010904//EN"
 "http://www.w3.org/TR/2001/REC-SVG-20010904/DTD/svg10.dtd">
<svg version="1.0" xmlns="http://www.w3.org/2000/svg"
 width="1200.000000pt" height="1200.000000pt" viewBox="0 0 1200.000000 1200.000000"
 preserveAspectRatio="xMidYMid meet">

<g transform="translate(0.000000,1200.000000) scale(0.100000,-0.100000)"
fill="#000000" stroke="none">
<path d="M5785 10929 c-189 -20 -358 -70 -540 -159 -261 -130 -481 -326 -645
-575 -123 -188 -232 -463 -272 -686 -22 -120 -22 -146 -23 -809 l0 -685 45 -3
c25 -1 51 2 58 6 11 7 15 151 23 743 8 673 15 850 30 809 3 -8 3 -76 0 -150
-3 -74 -5 -420 -3 -767 l3 -633 217 0 217 0 0 662 c0 739 2 761 70 964 114
340 311 562 608 685 140 57 235 74 412 73 119 -1 166 -5 228 -22 223 -61 423
-191 565 -368 93 -115 148 -215 193 -348 68 -200 71 -240 76 -983 l5 -663 275
0 274 0 -4 733 c-4 827 -5 834 -86 1068 -97 282 -215 465 -432 674 -123 118
-211 182 -339 249 -305 157 -625 219 -955 185z m-595 -323 c0 -2 -22 -20 -50
-40 -27 -20 -50 -34 -50 -31 0 4 91 74 98 75 1 0 2 -2 2 -4z m-120 -140 c0 -2
-8 -10 -17 -17 -16 -13 -17 -12 -4 4 13 16 21 21 21 13z m-95 -86 c-16 -16
-33 -30 -39 -30 -9 0 53 59 63 60 3 0 -8 -13 -24 -30z m-127 -130 c-29 -33
-54 -60 -57 -60 -5 0 22 32 68 83 55 58 48 43 -11 -23z m-38 10 c-17 -22 -34
-40 -37 -40 -2 0 10 18 27 40 17 22 34 40 37 40 2 0 -10 -18 -27 -40z m-343
-662 c-3 -7 -5 -2 -5 12 0 14 2 19 5 13 2 -7 2 -19 0 -25z"/>
<path d="M2985 10794 c-11 -1 -111 -13 -223 -25 l-203 -23 1 -95 c1 -53 1
-101 1 -107 -1 -15 -59 -39 -170 -69 -257 -71 -478 -182 -623 -313 l-38 -34 0
-152 c0 -83 4 -157 9 -164 12 -20 479 -30 503 -11 15 12 19 40 24 176 l7 161
71 7 c39 4 148 6 241 4 94 -2 203 -2 243 -1 l72 2 0 129 c0 71 3 143 6 160 l7
31 343 0 c189 0 344 -4 344 -8 0 -5 -24 -35 -53 -68 -30 -32 -91 -104 -138
-159 l-84 -100 -3 -387 -4 -388 227 0 227 0 -7 713 c-4 391 -8 713 -9 713 -2
3 -752 10 -771 8z"/>
<path d="M8540 9928 c0 -475 -3 -934 -7 -1020 l-6 -158 -51 0 c-28 0 -88 -3
-133 -7 l-83 -6 0 -121 0 -121 370 3 370 2 -2 278 -3 277 -27 3 -28 3 0 865 0
864 -200 0 -200 0 0 -862z"/>
<path d="M9287 10724 c-4 -38 -7 -183 -7 -321 l0 -253 503 -2 502 -3 3 -182 2
-183 -84 0 c-46 0 -97 -3 -115 -6 l-31 -6 40 -46 c22 -24 40 -48 40 -53 0 -22
-197 -136 -211 -122 -4 4 -9 60 -11 123 l-3 115 -142 3 -143 3 0 -206 0 -205
315 0 c253 0 317 -3 321 -13 3 -8 -4 -80 -14 -161 -13 -103 -15 -149 -8 -154
6 -4 90 -8 186 -9 l175 -1 8 -64 c23 -188 17 -172 62 -180 22 -4 84 -7 137 -7
l97 -1 16 -52 c8 -28 15 -59 15 -68 0 -20 26 -45 60 -58 14 -5 96 -13 183 -17
l157 -7 0 104 c0 58 -3 152 -6 211 l-7 105 -36 7 c-20 3 -84 22 -142 42 -90
30 -121 47 -205 109 -98 74 -251 157 -309 169 -26 6 -25 4 10 -14 23 -11 33
-20 23 -20 -10 -1 -18 -5 -18 -10 0 -16 105 -80 232 -141 68 -33 119 -60 115
-60 -34 0 -124 33 -247 90 -80 37 -189 82 -242 99 -102 34 -111 40 -122 84 -7
30 -1 32 54 17 19 -5 62 -16 95 -23 l60 -14 -3 223 -3 223 26 7 c34 8 307 0
323 -10 9 -5 12 -59 12 -199 0 -106 4 -198 9 -206 7 -10 41 -12 164 -10 85 2
159 7 163 11 10 11 -30 117 -101 263 -104 215 -235 394 -427 587 -225 224
-482 388 -764 488 -133 47 -228 60 -475 67 l-226 6 -6 -69z"/>
<path d="M7710 10744 c10 -44 14 -48 65 -64 95 -30 195 -92 256 -159 l59 -66
68 0 67 0 3 156 2 156 -196 6 c-109 4 -228 7 -265 7 l-67 0 8 -36z"/>
<path d="M7945 10045 c-5 -2 -36 -11 -67 -21 -32 -9 -58 -19 -58 -23 0 -3 9
-46 20 -96 80 -365 113 -565 126 -758 l7 -108 126 3 126 3 0 405 c0 368 -2
409 -18 449 -24 58 -49 90 -99 124 -33 22 -52 27 -97 26 -31 0 -60 -2 -66 -4z"/>
<path d="M1355 9733 c-82 -167 -163 -363 -152 -367 1 -1 95 0 210 2 l207 4 0
206 0 207 -118 3 -118 4 -29 -59z"/>
<path d="M2311 9780 c-25 -5 -49 -14 -54 -19 -6 -6 2 -43 22 -102 26 -73 30
-94 19 -100 -7 -5 -52 -32 -99 -60 -89 -52 -188 -132 -178 -143 3 -3 211 -3
462 1 l457 6 0 203 c0 151 -3 205 -12 211 -18 11 -564 14 -617 3z"/>
<path d="M1120 8978 c0 -35 -3 -100 -7 -145 l-6 -83 412 0 411 0 0 145 0 145
-405 0 -405 0 0 -62z"/>
<path d="M2617 9018 c-4 -12 -7 -78 -7 -145 l0 -123 148 0 c81 0 157 -3 170
-6 21 -6 22 -10 22 -135 l0 -129 -78 0 c-44 0 -120 -3 -170 -6 l-92 -7 0 -453
0 -452 31 -7 c17 -4 90 -5 162 -3 l132 3 3 -177 2 -178 -82 0 c-46 0 -120 -3
-166 -7 l-83 -6 3 -693 c2 -381 7 -696 11 -701 5 -4 69 -8 143 -7 118 1 134
-1 132 -15 -3 -14 -24 -16 -137 -18 -73 -1 -136 -4 -139 -8 -4 -4 -7 -172 -7
-373 l0 -367 161 -3 c182 -3 174 -7 174 81 l0 37 83 0 c46 0 125 -3 175 -6
l91 -7 6 -52 c9 -65 6 -64 204 -57 l147 5 0 46 c-1 59 11 104 27 98 18 -6 30
-200 22 -364 l-7 -143 -184 0 -184 0 0 -250 c0 -137 1 -250 3 -250 1 0 108 -3
237 -6 l235 -6 89 -35 c49 -20 109 -47 133 -61 74 -41 78 -52 81 -248 l4 -173
52 -6 c68 -9 292 -2 303 8 4 5 9 174 11 377 l3 368 -103 6 c-276 18 -386 28
-416 37 -64 21 -62 -3 -62 748 l0 681 -22 -10 c-13 -5 -61 -16 -106 -25 -46
-9 -99 -22 -117 -28 l-33 -12 23 -75 c12 -41 39 -114 58 -162 l35 -87 -51 -6
c-29 -3 -179 -5 -333 -3 l-282 3 -27 28 c-15 15 -31 27 -36 27 -17 0 -59 109
-74 192 -13 73 -14 104 -5 188 6 56 14 109 17 118 13 37 58 85 147 156 100 79
129 117 144 183 12 52 11 53 -123 53 -158 0 -152 24 16 65 130 33 344 44 489
26 96 -13 97 -13 97 -41 0 -24 -5 -29 -36 -34 -20 -3 -92 -6 -161 -7 -69 -1
-138 -4 -155 -8 -27 -5 -30 -10 -33 -50 -4 -59 24 -183 49 -216 12 -14 48 -44
80 -66 59 -39 100 -90 114 -139 7 -24 6 -23 -15 5 -13 17 -27 34 -31 39 -5 5
4 -21 19 -57 l27 -67 50 1 c50 0 261 31 269 40 4 4 10 1735 8 1978 -2 122 -2
123 -24 118 -13 -3 -47 -9 -77 -13 l-54 -7 6 112 6 111 -155 0 -155 0 3 -294
c2 -162 7 -298 11 -303 5 -4 66 -10 135 -13 l127 -5 5 -395 c3 -217 4 -397 2
-400 -2 -3 -181 -6 -398 -8 l-394 -3 0 134 0 134 77 7 c42 3 113 6 158 6 l82
0 6 273 c3 149 2 276 -2 280 -5 5 -77 7 -160 5 l-151 -3 0 230 c0 127 -3 280
-7 342 l-6 112 24 6 c13 3 91 9 174 13 172 8 162 1 164 123 1 71 -5 78 -66 79
-25 0 -29 14 -38 143 -8 108 -16 118 -140 182 -49 26 -133 79 -185 117 -100
75 -152 102 -211 113 -32 6 -37 4 -42 -17z"/>
<path d="M9962 9021 c-4 -9 -7 -72 -7 -141 0 -101 -3 -126 -15 -132 -8 -4
-140 -7 -292 -7 l-278 -1 0 -64 c0 -34 -3 -90 -6 -124 l-7 -60 319 1 c300 2
324 1 398 -20 43 -12 86 -29 95 -38 14 -14 17 -115 22 -979 5 -667 10 -969 18
-984 6 -11 30 -29 54 -41 37 -18 62 -21 164 -21 66 0 133 3 149 6 l29 5 -3
780 -3 779 170 0 171 0 0 -444 0 -445 21 -6 c21 -7 188 1 240 11 16 3 48 30
83 70 l56 66 0 478 c0 385 -3 480 -13 489 -8 6 -76 25 -153 42 -229 51 -263
64 -311 118 -23 25 -64 70 -90 99 -35 39 -57 54 -80 57 -18 2 -68 25 -110 51
-178 110 -261 196 -335 352 -47 99 -60 107 -191 115 -76 4 -89 3 -95 -12z"/>
<path d="M2963 9016 c4 -10 7 -21 7 -26 0 -21 58 -74 110 -100 85 -43 266
-103 420 -139 74 -17 162 -38 195 -46 33 -8 61 -12 63 -11 8 9 14 304 5 309
-5 3 -27 2 -49 -3 -21 -5 -101 -14 -176 -20 -145 -12 -225 -3 -215 24 3 7 0
13 -6 14 -7 0 -90 4 -186 8 -163 7 -174 6 -168 -10z m552 -66 c3 -5 1 -10 -4
-10 -6 0 -11 5 -11 10 0 6 2 10 4 10 3 0 8 -4 11 -10z"/>
<path d="M1110 8021 l0 -468 46 -7 c26 -3 73 -6 104 -6 50 0 58 -2 54 -17 -16
-79 -47 -188 -64 -228 -27 -62 -85 -140 -116 -154 l-24 -11 0 -355 0 -355 200
0 200 0 0 1035 0 1035 -200 0 -200 0 0 -469z"/>
<path d="M1863 8473 l-23 -4 0 -1102 c0 -606 3 -1207 7 -1334 l6 -233 199 0
198 0 0 1340 0 1340 -182 -1 c-101 -1 -193 -4 -205 -6z"/>
<path d="M8550 8090 l0 -200 230 0 230 0 0 184 c0 101 -3 191 -6 200 -5 14
-35 16 -230 16 l-224 0 0 -200z"/>
<path d="M9538 8283 l-58 -4 0 -399 0 -400 -235 0 -236 0 3 -511 3 -511 24
-19 c22 -18 44 -19 413 -19 l389 0 17 38 c16 34 17 105 13 902 -3 908 -3 907
-46 924 -17 6 -180 5 -287 -1z m45 -1240 c3 -5 7 -73 8 -153 l4 -145 -150 0
-150 0 -3 75 c-2 41 0 107 3 147 l7 72 51 4 c103 7 226 7 230 0z"/>
<path d="M7994 8153 c-92 -4 -94 -5 -94 -95 l0 -48 64 0 c36 0 68 -5 71 -10 4
-6 10 -45 13 -88 6 -70 7 -73 12 -32 5 44 6 46 77 83 83 43 91 58 77 140 l-9
52 -65 1 c-36 0 -102 -1 -146 -3z"/>
<path d="M7966 7953 c2 -10 5 -764 7 -1675 l5 -1658 -1999 0 -1999 0 0 -69 0
-69 78 -6 c42 -4 945 -8 2005 -9 1704 -2 1929 0 1937 13 6 9 9 655 7 1736 -2
1441 -4 1724 -16 1737 -18 22 -30 22 -25 0z"/>
<path d="M8074 7759 c3 -17 6 -470 6 -1005 l0 -974 123 4 c67 2 104 2 82 -1
-22 -2 -50 -14 -62 -25 -14 -13 -41 -23 -73 -26 -33 -3 -54 -10 -59 -21 -5 -9
-9 -295 -9 -636 0 -400 -4 -629 -11 -647 -5 -14 -13 -87 -17 -162 l-7 -136
314 2 314 3 3 253 2 252 -145 0 -145 0 0 168 0 169 307 7 c169 3 308 8 309 9
2 1 0 107 -3 235 l-6 232 -294 0 -293 0 -1 23 c-1 12 -4 86 -8 164 l-6 143
133 2 133 3 2 125 2 125 -100 6 c-114 6 -132 14 -187 87 -54 71 -88 149 -88
205 l0 47 188 0 c154 0 192 3 210 16 12 8 27 12 32 9 6 -4 10 -70 10 -166 l0
-159 39 -28 c21 -15 82 -45 135 -67 81 -33 98 -43 102 -64 3 -15 13 -49 21
-77 15 -48 19 -52 52 -58 20 -3 78 -6 129 -6 l92 0 0 -57 c0 -32 3 -109 7
-170 l6 -113 100 0 c83 0 98 -2 84 -12 -14 -11 -16 -43 -19 -236 l-3 -222 108
0 c104 0 108 -1 102 -20 -6 -19 10 -259 20 -307 l5 -23 -349 0 -348 0 -7 -37
c-3 -21 -6 -127 -6 -235 0 -165 2 -199 16 -212 13 -14 67 -16 433 -16 l418 0
6 -82 c9 -110 8 -220 -1 -235 -4 -7 -51 -14 -115 -19 l-107 -7 0 -99 c0 -55 5
-108 10 -118 6 -10 38 -40 73 -66 34 -26 90 -72 124 -101 l61 -53 141 0 141 0
0 -256 c0 -156 4 -273 11 -300 16 -63 52 -95 144 -132 148 -60 142 -54 150
-135 8 -89 23 -125 64 -160 40 -33 40 -33 148 68 85 79 196 209 271 318 l42
62 -173 6 c-95 3 -189 12 -210 18 -23 8 -58 36 -97 78 -33 36 -59 68 -57 70 2
2 20 -4 40 -12 30 -12 75 -14 254 -10 120 2 234 8 253 12 32 8 35 12 38 51 3
41 4 42 40 43 20 1 41 1 46 0 6 -1 20 0 33 4 19 4 28 23 57 118 38 121 77 311
97 475 10 87 10 105 -1 112 -8 5 -102 8 -210 7 l-195 -2 -3 -356 -2 -357 -23
-6 c-12 -3 -91 -6 -174 -6 l-153 0 1 373 0 372 78 37 c99 48 162 103 207 184
20 36 47 72 61 81 16 10 60 19 119 24 77 5 107 13 159 38 35 17 75 45 89 62
l26 31 0 588 0 588 -93 7 c-96 7 -290 1 -307 -10 -6 -4 -10 -85 -10 -201 l0
-194 -155 0 -155 0 0 -407 c0 -225 -3 -425 -6 -445 -7 -43 -24 -51 -24 -13 0
25 -1 25 -87 25 -81 -1 -105 -4 -200 -25 l-33 -7 0 246 0 246 -90 0 c-154 0
-240 49 -392 225 -96 110 -103 132 -125 365 -10 114 -20 181 -29 191 -11 12
-14 54 -14 176 l0 160 68 6 c108 11 413 8 478 -4 32 -6 62 -16 66 -22 4 -7 8
-58 8 -114 l0 -103 -27 0 c-16 0 -57 18 -93 40 -83 51 -94 51 -87 3 8 -45 52
-93 86 -93 14 0 32 -4 39 -9 15 -9 -63 -21 -144 -21 l-51 0 -6 -142 c-4 -79
-7 -180 -7 -226 0 -80 1 -83 26 -93 15 -5 86 -8 158 -7 l131 3 6 100 c7 122
20 169 62 231 72 108 171 151 321 139 87 -6 93 -5 116 17 50 47 215 240 232
270 9 17 23 35 30 39 7 5 67 9 133 9 179 0 165 -12 165 146 l0 134 -196 0
-196 0 4 -145 3 -145 -30 -6 c-16 -3 -88 -4 -160 -2 l-130 3 0 140 0 140 -197
3 -196 2 -7 -120 -8 -120 -119 116 c-66 63 -136 122 -155 131 -26 10 -63 14
-132 11 l-95 -3 -46 58 c-26 31 -65 89 -86 129 -21 39 -45 74 -53 76 -25 8 -4
-76 42 -171 l43 -88 -40 5 c-23 3 -124 8 -226 11 -102 4 -202 11 -223 16 -29
8 -70 41 -166 132 -76 73 -154 138 -194 161 -37 21 -68 39 -68 40 -1 0 -5 64
-8 141 l-6 140 -146 3 -146 3 -7 67 c-3 37 -6 106 -6 155 l0 87 58 0 c31 0
101 3 155 7 l97 6 0 193 c0 106 -3 199 -6 208 -5 14 -27 16 -139 16 l-132 0
-7 61 c-3 34 -6 83 -6 108 0 25 -5 62 -10 82 l-10 36 -52 -13 c-87 -23 -169
-18 -213 12 l-38 25 7 -32z m2495 -3625 c8 -8 0 -189 -12 -259 l-12 -70 -45
-7 c-74 -11 -218 -9 -226 3 -3 6 -9 87 -12 181 l-5 170 154 -7 c85 -4 156 -9
158 -11z"/>
<path d="M5763 7530 c-261 -68 -434 -211 -544 -450 -45 -96 -62 -180 -62 -310
-1 -90 4 -132 22 -194 56 -202 172 -346 344 -431 l97 -49 -5 -90 c-4 -50 -15
-181 -26 -291 -56 -588 -59 -658 -29 -721 37 -76 51 -79 392 -82 332 -4 348
-1 388 63 25 40 26 104 5 300 -53 498 -79 800 -72 819 4 9 22 22 41 30 128 53
248 169 311 300 56 117 76 211 77 351 0 226 -75 411 -225 552 -192 182 -482
264 -714 203z m324 -36 c153 -31 259 -90 379 -209 109 -109 154 -190 184 -335
22 -108 25 -190 9 -292 -35 -225 -149 -388 -342 -488 l-87 -45 0 -45 c0 -55
31 -393 65 -700 35 -318 35 -331 22 -370 -23 -66 -44 -70 -362 -70 -316 0
-325 2 -360 76 -18 38 -18 47 -1 259 14 184 52 604 70 787 l5 48 -102 52 c-82
42 -118 67 -183 132 -95 94 -143 180 -174 309 -67 281 55 614 282 769 180 122
389 165 595 122z"/>
<path d="M5881 6750 c-73 -18 -121 -76 -141 -169 -16 -76 -8 -117 41 -206 36
-66 39 -78 39 -150 0 -84 -27 -273 -41 -291 -18 -22 -66 -659 -54 -713 13 -61
25 -64 222 -59 98 3 186 8 195 12 25 11 38 61 33 124 -3 31 -15 174 -26 317
-19 250 -30 327 -50 351 -13 16 -29 161 -29 264 0 78 3 92 40 170 23 49 40
100 40 121 0 48 -23 121 -50 159 -40 56 -142 89 -219 70z m191 -926 c11 -88
38 -471 38 -530 0 -38 -4 -53 -16 -58 -9 -3 -81 -6 -161 -6 l-146 0 7 113 c3
61 11 189 16 282 5 94 12 190 15 215 l6 45 117 -1 117 -2 7 -58z"/>
<path d="M10940 6633 c0 -60 3 -138 7 -175 l6 -68 183 0 184 0 0 175 0 175
-190 0 -190 0 0 -107z"/>
<path d="M1122 6083 c-22 -4 -22 -5 -16 -146 4 -78 9 -144 11 -147 2 -2 86 -6
186 -8 165 -4 184 -3 197 13 11 13 16 54 18 156 l4 139 -188 -1 c-104 -1 -199
-4 -212 -6z"/>
<path d="M3280 5956 c0 -51 3 -108 7 -126 l6 -33 104 7 c57 4 117 9 133 13
l29 5 -23 47 c-42 83 -167 181 -231 181 -25 0 -25 0 -25 -94z"/>
<path d="M1467 5730 c-10 -39 -70 -54 -220 -55 l-137 0 2 -718 3 -718 42 -40
42 -39 130 0 c71 0 141 4 155 10 l26 10 0 333 c0 645 -12 1237 -25 1237 -7 0
-15 -9 -18 -20z"/>
<path d="M1846 5474 c-3 -8 -6 -509 -6 -1112 0 -995 7 -1366 26 -1425 5 -15
-8 -8 -46 26 l-52 47 -190 0 -190 0 7 -117 c4 -64 10 -139 14 -167 l6 -51 269
-3 c233 -2 272 -5 288 -19 10 -9 18 -22 18 -30 0 -7 6 -13 13 -13 6 0 -15 -11
-47 -25 -32 -13 -74 -39 -93 -57 -42 -40 -101 -159 -109 -219 -6 -43 -5 -46
44 -91 96 -90 441 -302 460 -283 4 4 8 103 11 221 2 124 7 214 13 214 5 0 21
-6 36 -14 15 -8 70 -29 122 -47 95 -33 95 -33 288 -33 l192 1 0 -52 c0 -29 3
-100 6 -158 l7 -106 -152 -3 c-121 -2 -154 -6 -161 -18 -5 -8 -10 -61 -10
-118 l0 -103 38 -16 c42 -18 228 -73 247 -73 9 0 14 40 19 142 4 79 10 146 12
150 3 5 103 8 222 8 119 0 308 3 419 7 l201 6 7 133 c4 73 4 154 1 179 l-7 45
-392 0 c-229 0 -398 4 -407 10 -13 8 -16 62 -18 361 l-4 352 -96 -6 c-54 -4
-132 -7 -174 -7 l-78 0 0 -180 0 -180 -161 0 -160 0 -16 37 c-13 32 -14 85 -8
414 4 207 4 446 0 532 l-7 157 -144 0 -144 0 0 174 0 173 152 8 151 7 -6 226
c-4 124 -7 419 -7 656 l0 431 -187 3 c-107 1 -191 7 -198 12 -9 8 -14 6 -19
-6z"/>
<path d="M2738 4653 l-128 -4 0 -259 0 -260 154 0 c85 0 161 3 170 6 14 5 16
37 16 249 0 134 -3 250 -6 259 -4 11 -17 15 -43 14 -20 -1 -93 -4 -163 -5z"/>
<path d="M7270 4251 c0 -60 -3 -116 -6 -125 -5 -14 16 -15 202 -9 115 3 211 7
213 9 2 2 4 41 5 87 1 99 11 117 67 117 22 0 39 4 39 9 0 16 -73 21 -297 21
l-223 0 0 -109z"/>
<path d="M5712 4228 l3 -102 40 -8 c21 -5 98 -7 170 -6 l130 3 3 108 3 107
-176 0 -176 0 3 -102z"/>
<path d="M4860 3991 l0 -208 46 -7 c26 -3 84 -6 130 -6 l84 0 0 -210 0 -210
-130 0 -130 0 0 -184 0 -183 413 -7 c226 -4 457 -5 512 -2 55 3 143 6 196 6
l96 0 7 175 c3 96 9 181 12 188 6 16 -109 27 -278 27 l-98 0 0 108 c0 60 -3
150 -6 200 l-7 92 -177 0 -177 0 -7 46 c-3 26 -6 118 -6 206 l0 159 -37 -8
c-67 -14 -293 -7 -366 11 -38 9 -70 16 -73 16 -2 0 -4 -94 -4 -209z m754 -672
c3 -17 6 -87 6 -156 l0 -124 -137 3 -138 3 -3 153 -3 152 134 0 135 0 6 -31z"/>
<path d="M6450 4176 c0 -15 8 -30 20 -36 11 -6 92 -10 194 -11 l174 0 4 -212
c4 -248 10 -272 80 -308 63 -33 129 -31 203 6 91 46 94 54 102 240 7 187 1
211 -69 268 -86 71 -90 72 -415 75 l-293 3 0 -25z"/>
<path d="M1070 3972 c0 -5 7 -15 15 -22 8 -7 15 -18 15 -26 0 -7 11 -24 25
-38 l24 -24 -21 -14 c-13 -9 -18 -19 -14 -27 6 -9 11 -8 22 6 7 10 14 13 14 7
0 -7 -8 -22 -18 -34 -17 -21 -18 -40 -15 -204 2 -100 6 -200 9 -223 l5 -43
215 0 214 0 0 123 c0 67 3 193 7 281 l6 159 96 -7 c52 -4 107 -9 121 -11 14
-3 -12 8 -58 24 -101 37 -178 48 -402 61 -96 5 -194 13 -217 16 -26 4 -43 2
-43 -4z"/>
<path d="M3337 3783 c-16 -4 -17 -22 -15 -231 l3 -227 223 -3 222 -2 0 235 0
235 -207 -1 c-115 -1 -216 -3 -226 -6z"/>
<path d="M8013 3783 l-313 -3 0 -222 0 -221 175 7 175 7 0 -165 0 -166 -415 0
-415 0 0 -387 0 -386 1170 6 1170 7 0 -280 c0 -154 2 -280 5 -280 18 0 155 59
258 111 206 104 570 341 687 448 l55 50 -167 1 -168 0 -2 163 -3 162 -85 7
c-47 3 -524 6 -1061 7 l-977 1 -6 23 c-8 29 -8 116 1 157 l6 33 137 -5 138 -5
6 36 c3 20 6 51 6 69 l0 32 150 0 150 0 0 159 c0 198 -4 219 -39 223 -23 3
-27 8 -31 49 -9 73 -18 79 -125 79 l-93 0 -7 128 c-3 70 -7 134 -8 142 -3 18
27 17 -374 13z"/>
<path d="M2620 3549 l0 -232 77 7 c42 3 116 6 165 6 l88 0 0 225 0 225 -165 0
-165 0 0 -231z"/>
<path d="M6120 3570 l0 -210 170 0 170 0 0 -188 c0 -133 4 -192 12 -200 8 -8
67 -12 200 -12 l188 0 1 93 c1 115 -2 311 -5 314 -1 1 -88 3 -194 4 l-192 1 0
204 0 204 -175 0 -175 0 0 -210z"/>
<path d="M9010 3380 l0 -400 429 0 428 0 7 38 c5 35 9 321 4 323 -2 1 -119 4
-260 8 -231 6 -259 8 -277 25 -20 18 -21 30 -21 213 l0 193 -155 0 -155 0 0
-400z"/>
<path d="M4107 3344 c-4 -4 -7 -249 -7 -544 l0 -537 182 -6 c99 -4 250 -7 335
-7 l153 0 0 194 c0 168 -2 195 -16 200 -9 3 -74 6 -145 6 l-129 0 -1 263 c-1
144 -4 300 -7 347 l-7 85 -176 3 c-96 1 -178 -1 -182 -4z"/>
<path d="M3336 2992 c-9 -15 -11 -370 -3 -379 12 -12 409 -16 426 -4 11 7 16
46 19 174 3 91 2 177 -2 191 l-6 26 -215 0 c-117 0 -216 -4 -219 -8z"/>
<path d="M5291 2898 c-6 -18 -15 -78 -21 -133 -6 -55 -13 -105 -15 -112 -2 -6
-35 -15 -75 -19 -46 -4 -79 -13 -95 -26 -33 -26 -107 -176 -108 -220 -2 -86
124 -168 259 -168 55 0 64 8 64 56 l0 24 179 0 c177 0 179 0 185 -22 3 -13 6
-89 6 -170 l0 -148 -410 0 -410 0 0 -165 0 -165 613 0 614 0 6 122 c8 149 9
845 1 874 -6 21 -12 22 -197 26 -221 5 -208 1 -342 108 -89 72 -193 146 -207
149 -5 0 -13 1 -19 1 -5 0 -7 5 -4 10 3 6 2 10 -4 10 -5 0 -14 -15 -20 -32z"/>
<path d="M6463 2643 c-10 -3 -13 -51 -13 -188 0 -157 2 -184 16 -189 9 -3 103
-6 210 -6 l194 0 0 195 0 195 -197 -1 c-109 0 -204 -3 -210 -6z"/>
<path d="M4096 1953 c-3 -4 -6 -78 -6 -165 l0 -158 190 0 190 0 1 133 c1 120
0 180 -4 183 -7 5 -366 12 -371 7z"/>
<path d="M6460 1795 l0 -165 583 2 582 3 3 156 2 156 -27 6 c-16 3 -279 6
-585 7 l-558 1 0 -166z"/>
<path d="M7984 1947 c-2 -7 -3 -80 -2 -162 l3 -150 535 -2 c294 -2 578 0 630
5 l95 7 3 135 c1 74 0 144 -2 156 l-6 21 -625 1 c-491 1 -627 -2 -631 -11z"/>
</g>
</svg>
